<?xml version="1.0" standalone="no"?>
<!DOCTYPE svg PUBLIC "-//W3C//DTD SVG 20010904//EN"
 "http://www.w3.org/TR/2001/REC-SVG-20010904/DTD/svg10.dtd">
<svg version="1.0" xmlns="http://www.w3.org/2000/svg"
 width="448.000000pt" height="385.000000pt" viewBox="0 0 448.000000 385.000000"
 preserveAspectRatio="xMidYMid meet">
<metadata>
Created by potrace 1.16, written by Peter Selinger 2001-2019
</metadata>
<g transform="translate(0.000000,385.000000) scale(0.100000,-0.100000)"
fill="#000000" stroke="none">
<path d="M315 3834 c-73 -38 -120 -117 -96 -162 15 -28 71 -45 104 -33 31 12
41 42 35 106 -3 43 -2 45 22 45 29 0 103 -44 137 -81 30 -34 70 -116 84 -174
22 -96 12 -332 -14 -339 -7 -2 -43 -8 -81 -14 -237 -37 -404 -240 -446 -542
-6 -47 -20 -113 -30 -147 -43 -138 -32 -276 30 -398 17 -33 40 -98 50 -145 52
-231 85 -313 162 -406 80 -97 150 -136 299 -165 164 -32 339 59 499 258 l55
69 70 -71 c58 -58 259 -204 299 -218 30 -10 -74 -359 -187 -626 l-62 -146 -45
-3 c-82 -4 -109 -13 -140 -43 -20 -20 -30 -41 -30 -60 0 -35 2 -35 56 -9 24
12 75 24 120 28 l79 7 47 95 c89 180 202 481 248 657 l11 43 70 -38 71 -37 -6
-118 c-10 -185 -47 -382 -123 -654 l-37 -133 -41 0 c-85 -1 -155 -57 -155
-125 0 -30 13 -32 48 -6 32 22 100 46 159 56 l43 7 31 96 c78 244 141 533 159
726 5 60 11 111 13 112 2 2 25 -4 52 -12 78 -25 227 -23 295 4 30 12 56 22 57
22 7 0 -77 -295 -120 -420 l-52 -155 -60 -6 c-69 -6 -95 -18 -124 -55 -19 -25
-30 -84 -14 -84 3 0 29 11 58 25 28 14 76 28 106 32 30 3 61 10 71 14 9 5 31
46 48 91 47 121 136 394 151 461 7 32 15 56 19 55 3 -2 41 -21 83 -43 65 -34
79 -46 92 -79 55 -137 31 -417 -66 -749 -31 -105 -32 -107 -62 -107 -88 0
-167 -59 -167 -125 0 -19 2 -35 5 -35 3 0 23 12 45 26 22 15 75 35 117 45 42
10 80 24 85 31 14 21 65 195 98 328 79 329 81 575 4 677 -15 20 -44 39 -81 53
-88 33 -133 61 -133 83 0 11 9 34 20 53 l21 33 82 -60 c200 -143 406 -219 641
-235 l98 -7 -7 -86 c-8 -100 -42 -382 -51 -417 -4 -16 -16 -26 -33 -30 -54
-11 -112 -45 -131 -76 -21 -34 -27 -98 -10 -98 5 0 30 15 54 34 25 19 74 44
110 56 39 13 67 28 70 38 21 69 76 468 76 546 l0 44 50 4 c33 2 68 -4 100 -16
47 -17 49 -21 56 -63 15 -98 -17 -253 -86 -429 -36 -89 -154 -328 -194 -392
-25 -40 -28 -42 -76 -42 -85 0 -150 -41 -166 -104 -6 -27 -5 -28 17 -23 13 3
42 12 64 20 22 9 72 18 111 22 l71 7 86 172 c135 270 210 456 248 611 23 99
25 205 3 246 -8 17 -14 32 -12 33 2 2 35 13 73 26 367 120 779 458 842 691 24
89 24 233 0 278 -81 148 -349 257 -852 347 -145 26 -182 29 -385 29 -204 0
-233 -2 -315 -24 -160 -41 -321 -129 -413 -223 l-43 -45 -37 34 c-90 83 -223
141 -385 169 -72 13 -134 15 -287 11 -107 -3 -206 -8 -220 -12 l-25 -6 0 128
c0 108 -4 139 -23 196 -31 88 -93 180 -153 226 -26 20 -48 42 -48 49 -1 25
138 298 183 360 75 102 145 134 216 97 31 -16 66 -67 80 -116 8 -26 5 -37 -14
-63 -37 -50 -47 -74 -40 -101 8 -31 57 -59 90 -51 87 22 37 290 -71 384 -29
26 -44 32 -83 32 -110 0 -218 -118 -363 -395 -34 -66 -63 -121 -65 -123 -1 -2
-33 8 -71 21 -79 29 -219 60 -362 82 -56 8 -102 15 -103 15 -2 0 -3 73 -3 163
0 172 -17 263 -66 358 -28 55 -88 119 -126 136 -43 18 -121 16 -158 -3z m145
-1180 c74 -22 167 -114 200 -199 33 -84 33 -206 0 -290 -81 -207 -315 -269
-472 -126 -162 148 -165 413 -6 556 79 71 172 91 278 59z m710 -119 c69 -24
125 -77 162 -153 31 -62 33 -74 33 -167 0 -91 -3 -106 -31 -165 -101 -213
-345 -273 -492 -121 -177 182 -101 522 135 607 51 18 141 17 193 -1z"/>
<path d="M444 2370 c-12 -5 -29 -19 -38 -32 -44 -63 20 -142 94 -117 34 12 50
35 50 73 0 38 -10 55 -41 71 -32 17 -36 17 -65 5z"/>
<path d="M911 2253 c-11 -10 -24 -32 -27 -50 -5 -27 -1 -37 24 -63 36 -35 69
-38 106 -9 55 44 21 139 -51 139 -17 0 -40 -8 -52 -17z"/>
</g>
</svg>
